<svg width="200" height="93" viewBox="0 0 200 93" fill="none" xmlns="http://www.w3.org/2000/svg">
<g clip-path="url(#clip0)">
<path fill-rule="evenodd" clip-rule="evenodd" d="M56.3851 80.3301V11.7153C71.1979 16.1284 82.0261 29.8381 82.0261 46.0227C82.0261 62.2074 71.1979 75.9196 56.3851 80.3301ZM46.1287 0V38.7895L40.2697 32.9472L39.521 18.3656L45.6312 0.0255682C41.7133 0.0664773 37.9287 0.623864 34.3056 1.58267L31.3492 10.4472L22.9697 6.25653C19.6543 8.18182 16.5877 10.4855 13.862 13.1472L29.3825 20.902L29.8364 29.7767L20.9389 29.3216L13.1595 13.8477C10.4928 16.5656 8.17997 19.621 6.24921 22.9295L10.4543 31.2878L1.55946 34.2332C0.600488 37.846 0.0415139 41.6199 0.000488281 45.5267L18.3954 39.4338L33.0184 40.1778L38.8774 46.0227L33.0184 51.8676L18.3954 52.6116L0.000488281 46.5187C0.0415139 50.4256 0.600488 54.1994 1.55946 57.8122L10.4543 60.7577L6.24921 69.1159C8.17997 72.4244 10.4928 75.4798 13.1595 78.1977L20.9389 62.7239L29.8364 62.2687L29.3825 71.1409L13.862 78.8983C16.5877 81.5574 19.6543 83.8611 22.9697 85.7889L31.3492 81.5983L34.3056 90.4628C37.9287 91.419 41.7133 91.979 45.6312 92.0199L39.521 73.6798L40.2697 59.0983L46.1287 53.256V92.0454C71.6184 92.0454 92.2825 71.44 92.2825 46.0227C92.2825 20.6054 71.6184 0 46.1287 0Z" fill="#FF00AF"/>
<path fill-rule="evenodd" clip-rule="evenodd" d="M189.8 68.4964H200V7.58838H189.8V68.4964Z" fill="#FF00AF"/>
<path fill-rule="evenodd" clip-rule="evenodd" d="M146.2 68.4964H156.415V42.103H174.292V33.9819H156.415V15.7095H179.4V7.58838H146.2V68.4964Z" fill="#FF00AF"/>
<path fill-rule="evenodd" clip-rule="evenodd" d="M102.6 68.4964H135.8V60.3752H112.815V42.103H130.692V33.9819H112.815V15.7095H135.8V7.58838H102.6V68.4964Z" fill="#FF00AF"/>
<rect x="102.6" y="72.0913" width="3.99999" height="19.9698" fill="#FF00AF"/>
<rect x="110.6" y="72.0913" width="3.95132" height="19.9698" fill="#FF00AF"/>
<rect x="118.503" y="72.0913" width="3.9513" height="19.9698" fill="#FF00AF"/>
<path d="M110.6 72.0913H114.551L122.454 92.0611H118.503L110.6 72.0913Z" fill="#FF00AF"/>
<rect x="188.218" y="72.0913" width="3.95132" height="19.9698" fill="#FF00AF"/>
<rect x="188.218" y="92.061" width="3.99397" height="11.854" transform="rotate(-90 188.218 92.061)" fill="#FF00AF"/>
<rect x="188.218" y="76.0854" width="3.99397" height="11.854" transform="rotate(-90 188.218 76.0854)" fill="#FF00AF"/>
<rect x="188.218" y="83.8735" width="3.99398" height="9.48315" transform="rotate(-90 188.218 83.8735)" fill="#FF00AF"/>
<rect x="165.054" y="72.0913" width="3.95132" height="19.9698" fill="#FF00AF"/>
<rect x="180.266" y="72.0913" width="3.95131" height="19.9698" fill="#FF00AF"/>
<path d="M165.054 72.0913H169.005L176.512 92.0611H172.561L165.054 72.0913Z" fill="#FF00AF"/>
<path d="M165.054 72.0913H169.005L176.512 92.0611H172.561L165.054 72.0913Z" fill="#FF00AF"/>
<path d="M184.218 72.0913H180.266L172.759 92.0611H176.71L184.218 72.0913Z" fill="#FF00AF"/>
<path d="M184.218 72.0913H180.266L172.759 92.0611H176.71L184.218 72.0913Z" fill="#FF00AF"/>
<path d="M139.624 72.6065C138.085 72.0927 136.444 71.9607 134.843 72.2218C133.241 72.4828 131.727 73.1292 130.432 74.1049C129.136 75.0807 128.098 76.3567 127.407 77.8226C126.715 79.2885 126.392 80.9004 126.464 82.5192C126.536 84.1379 127.001 85.7148 127.82 87.1138C128.639 88.5128 129.786 89.6918 131.163 90.5491C132.54 91.4064 134.105 91.9162 135.724 92.0345C137.342 92.1528 138.965 91.876 140.453 91.2281L138.853 87.5673C137.961 87.9561 136.987 88.1222 136.016 88.0512C135.045 87.9802 134.106 87.6743 133.279 87.16C132.453 86.6456 131.765 85.9382 131.273 85.0988C130.782 84.2594 130.503 83.3132 130.46 82.342C130.417 81.3708 130.611 80.4036 131.026 79.524C131.44 78.6445 132.063 77.8789 132.841 77.2934C133.618 76.708 134.526 76.3202 135.487 76.1635C136.448 76.0069 137.433 76.0861 138.356 76.3944L139.624 72.6065Z" fill="#FF00AF"/>
<path d="M161.054 82.0762C161.054 87.5907 156.666 92.0611 151.254 92.0611C145.841 92.0611 141.454 87.5907 141.454 82.0762C141.454 76.5617 145.841 72.0913 151.254 72.0913C156.666 72.0913 161.054 76.5617 161.054 82.0762ZM145.374 82.0762C145.374 85.3849 148.006 88.0672 151.254 88.0672C154.501 88.0672 157.134 85.3849 157.134 82.0762C157.134 78.7675 154.501 76.0853 151.254 76.0853C148.006 76.0853 145.374 78.7675 145.374 82.0762Z" fill="#FF00AF"/>
</g>
<defs>
<clipPath id="clip0">
<rect width="200" height="92.0454" fill="white"/>
</clipPath>
</defs>
</svg>
