<svg width="40" height="40" viewBox="0 0 40 40" fill="none" xmlns="http://www.w3.org/2000/svg">
  <g clip-path="url(#clip0)">
    <path
      d="M39.5833 32.9167H3.75V0.416667C3.75 0.1875 3.5625 0 3.33333 0H0.416667C0.1875 0 0 0.1875 0 0.416667V36.25C0 36.4792 0.1875 36.6667 0.416667 36.6667H39.5833C39.8125 36.6667 40 36.4792 40 36.25V33.3333C40 33.1042 39.8125 32.9167 39.5833 32.9167ZM8.33333 28.75H11.25C11.4792 28.75 11.6667 28.5625 11.6667 28.3333V20.8333C11.6667 20.6042 11.4792 20.4167 11.25 20.4167H8.33333C8.10417 20.4167 7.91667 20.6042 7.91667 20.8333V28.3333C7.91667 28.5625 8.10417 28.75 8.33333 28.75ZM16.25 28.75H19.1667C19.3958 28.75 19.5833 28.5625 19.5833 28.3333V11.6667C19.5833 11.4375 19.3958 11.25 19.1667 11.25H16.25C16.0208 11.25 15.8333 11.4375 15.8333 11.6667V28.3333C15.8333 28.5625 16.0208 28.75 16.25 28.75ZM24.1667 28.75H27.0833C27.3125 28.75 27.5 28.5625 27.5 28.3333V15.7292C27.5 15.5 27.3125 15.3125 27.0833 15.3125H24.1667C23.9375 15.3125 23.75 15.5 23.75 15.7292V28.3333C23.75 28.5625 23.9375 28.75 24.1667 28.75ZM32.0833 28.75H35C35.2292 28.75 35.4167 28.5625 35.4167 28.3333V7.5C35.4167 7.27083 35.2292 7.08333 35 7.08333H32.0833C31.8542 7.08333 31.6667 7.27083 31.6667 7.5V28.3333C31.6667 28.5625 31.8542 28.75 32.0833 28.75Z"
      fill="black" />
  </g>
  <defs>
    <clipPath id="clip0">
      <rect width="40" height="40" fill="white" />
    </clipPath>
  </defs>
</svg>
