<svg width="40" height="40" viewBox="0 0 40 40" fill="none" xmlns="http://www.w3.org/2000/svg">
  <path
    d="M34.9827 40H5.01197C3.63311 40 2.45587 39.5117 1.48026 38.5352C0.504651 37.5586 0.0168457 36.3802 0.0168457 35V5C0.0168457 3.61979 0.504651 2.44141 1.48026 1.46484C2.45587 0.488281 3.63311 0 5.01197 0H34.9827C36.3616 0 37.5388 0.488281 38.5144 1.46484C39.49 2.44141 39.9778 3.61979 39.9778 5V35C39.9778 36.3802 39.49 37.5586 38.5144 38.5352C37.5388 39.5117 36.3616 40 34.9827 40ZM16.251 10H12.5047V6.25C12.5047 5.91146 12.3811 5.61849 12.1339 5.37109C11.8868 5.1237 11.5941 5 11.2559 5C10.9177 5 10.625 5.1237 10.3778 5.37109C10.1307 5.61849 10.0071 5.91146 10.0071 6.25V10H6.26075C5.92254 10 5.62985 10.1237 5.3827 10.3711C5.13555 10.6185 5.01197 10.9115 5.01197 11.25C5.01197 11.5885 5.13555 11.8815 5.3827 12.1289C5.62985 12.3763 5.92254 12.5 6.26075 12.5H10.0071V16.25C10.0071 16.5885 10.1307 16.8815 10.3778 17.1289C10.625 17.3763 10.9177 17.5 11.2559 17.5C11.5941 17.5 11.8868 17.3763 12.1339 17.1289C12.3811 16.8815 12.5047 16.5885 12.5047 16.25V12.5H16.251C16.5892 12.5 16.8819 12.3763 17.129 12.1289C17.3762 11.8815 17.4998 11.5885 17.4998 11.25C17.4998 10.9115 17.3762 10.6185 17.129 10.3711C16.8819 10.1237 16.5892 10 16.251 10ZM17.2071 22.793C17.012 22.5977 16.7713 22.5 16.4851 22.5C16.199 22.5 15.9518 22.5911 15.7437 22.7734L11.2559 27.2656L6.76807 22.7734C6.55994 22.5911 6.31278 22.5 6.0266 22.5C5.74042 22.5 5.49977 22.5977 5.30465 22.793C5.10953 22.9883 5.01197 23.2292 5.01197 23.5156C5.01197 23.8021 5.10302 24.0495 5.28514 24.2578L9.77294 28.75L5.32416 33.2031C5.11603 33.4115 5.01197 33.6589 5.01197 33.9453C5.01197 34.2318 5.11603 34.4792 5.32416 34.6875C5.53229 34.8958 5.77945 35 6.06563 35C6.35181 35 6.59896 34.8958 6.80709 34.6875L11.2559 30.2344L15.7047 34.6875C15.9128 34.8958 16.1599 35 16.4461 35C16.7323 35 16.9794 34.8958 17.1876 34.6875C17.3957 34.4792 17.4998 34.2318 17.4998 33.9453C17.4998 33.6589 17.3957 33.4115 17.1876 33.2031L12.7388 28.75L17.2266 24.2578C17.4087 24.0495 17.4998 23.8021 17.4998 23.5156C17.4998 23.2292 17.4022 22.9883 17.2071 22.793ZM33.7339 10H23.7437C23.4055 10 23.1128 10.1237 22.8656 10.3711C22.6185 10.6185 22.4949 10.9115 22.4949 11.25C22.4949 11.5885 22.6185 11.8815 22.8656 12.1289C23.1128 12.3763 23.4055 12.5 23.7437 12.5H33.7339C34.0721 12.5 34.3648 12.3763 34.612 12.1289C34.8591 11.8815 34.9827 11.5885 34.9827 11.25C34.9827 10.9115 34.8591 10.6185 34.612 10.3711C34.3648 10.1237 34.0721 10 33.7339 10ZM33.7339 25H23.7437C23.4055 25 23.1128 25.1237 22.8656 25.3711C22.6185 25.6185 22.4949 25.9115 22.4949 26.25C22.4949 26.5885 22.6185 26.8815 22.8656 27.1289C23.1128 27.3763 23.4055 27.5 23.7437 27.5H33.7339C34.0721 27.5 34.3648 27.3763 34.612 27.1289C34.8591 26.8815 34.9827 26.5885 34.9827 26.25C34.9827 25.9115 34.8591 25.6185 34.612 25.3711C34.3648 25.1237 34.0721 25 33.7339 25ZM33.7339 30H23.7437C23.4055 30 23.1128 30.1237 22.8656 30.3711C22.6185 30.6185 22.4949 30.9115 22.4949 31.25C22.4949 31.5885 22.6185 31.8815 22.8656 32.1289C23.1128 32.3763 23.4055 32.5 23.7437 32.5H33.7339C34.0721 32.5 34.3648 32.3763 34.612 32.1289C34.8591 31.8815 34.9827 31.5885 34.9827 31.25C34.9827 30.9115 34.8591 30.6185 34.612 30.3711C34.3648 30.1237 34.0721 30 33.7339 30Z"
    fill="#263238" />
</svg>
