<svg width="20" height="20" viewBox="0 0 20 20" fill="none" xmlns="http://www.w3.org/2000/svg">
<path d="M11.4695 9.97733L19.7595 1.70951C19.9234 1.51872 20.009 1.2733 19.9993 1.0223C19.9895 0.771294 19.8852 0.533193 19.7071 0.355575C19.529 0.177957 19.2903 0.0739031 19.0386 0.064208C18.7869 0.0545128 18.5408 0.13989 18.3495 0.303279L10.0595 8.57111L1.76954 0.293305C1.58124 0.105505 1.32585 0 1.05954 0C0.793242 0 0.537847 0.105505 0.349543 0.293305C0.16124 0.481105 0.0554518 0.735817 0.0554518 1.00141C0.0554518 1.267 0.16124 1.52171 0.349543 1.70951L8.64954 9.97733L0.349543 18.2452C0.244862 18.3346 0.159841 18.4446 0.0998181 18.5683C0.0397948 18.6921 0.00606468 18.8268 0.000745191 18.9642C-0.0045743 19.1015 0.0186312 19.2385 0.0689057 19.3665C0.11918 19.4945 0.195439 19.6107 0.292893 19.7079C0.390348 19.8051 0.506895 19.8811 0.63522 19.9313C0.763546 19.9814 0.900878 20.0046 1.0386 19.9993C1.17632 19.9939 1.31145 19.9603 1.43551 19.9004C1.55958 19.8406 1.6699 19.7558 1.75954 19.6514L10.0595 11.3836L18.3495 19.6514C18.5408 19.8148 18.7869 19.9002 19.0386 19.8905C19.2903 19.8808 19.529 19.7767 19.7071 19.5991C19.8852 19.4215 19.9895 19.1834 19.9993 18.9324C20.009 18.6814 19.9234 18.436 19.7595 18.2452L11.4695 9.97733Z" fill="black"/>
</svg>
