<svg width="38" height="38" viewBox="0 0 38 38" fill="none" xmlns="http://www.w3.org/2000/svg">
<path d="M33.9142 20.4919L29.873 6.73174V6.72803C29.591 5.87822 28.9193 5.37354 28.0806 5.37354C27.2123 5.37354 26.5035 5.87451 26.2363 6.67979L23.5867 14.5841H14.4281L11.7785 6.67979C11.5113 5.87451 10.8025 5.37354 9.93415 5.37354C9.07692 5.37354 8.357 5.92275 8.13805 6.73174L4.10055 20.4919C3.93727 21.0374 4.14508 21.6571 4.60153 22.0022L18.2763 32.2593C18.3728 32.3929 18.5064 32.4931 18.6623 32.5487L18.9814 32.7862L19.2968 32.5487C19.4787 32.4856 19.6308 32.3743 19.7384 32.2185L33.4095 21.9985C33.8697 21.6571 34.0775 21.0374 33.9142 20.4919ZM27.8951 7.17705C27.9322 7.11025 28.0027 7.10654 28.025 7.10654C28.0658 7.10654 28.1177 7.11768 28.1511 7.21787L30.3554 14.6323H25.4013L27.8951 7.17705ZM9.80797 7.21416C9.84137 7.11768 9.89333 7.10654 9.93415 7.10654C10.0343 7.10654 10.0418 7.11025 10.0603 7.16963L12.5578 14.636H7.66305L9.80797 7.21416ZM5.89293 20.7331L6.93942 17.1224L14.4504 27.1493L5.89293 20.7331ZM8.63532 16.4136H13.1664L16.5359 26.9638L8.63532 16.4136ZM19.0334 28.797L15.0552 16.4136H23.0078L19.0334 28.797ZM24.8929 16.4136H29.3275L21.5234 26.8339L24.8929 16.4136ZM23.3826 27.32L31.0754 17.0519L32.1701 20.7331L23.3826 27.32Z" fill="#FF00AF"/>
</svg>
