<svg width="40" height="40" viewBox="0 0 40 40" fill="none" class="stroke-current" xmlns="http://www.w3.org/2000/svg">
  <path
    d="M36.6667 33.3334V20.2901C36.6668 19.3826 36.4816 18.4847 36.1225 17.6513C35.7635 16.8179 35.238 16.0666 34.5784 15.4434L22.29 3.83009C21.6711 3.24497 20.8517 2.91895 20 2.91895C19.1483 2.91895 18.3289 3.24497 17.71 3.83009L5.42171 15.4434C4.76208 16.0666 4.23663 16.8179 3.87754 17.6513C3.51845 18.4847 3.33328 19.3826 3.33337 20.2901V33.3334C3.33337 34.2175 3.68456 35.0653 4.30968 35.6904C4.93481 36.3156 5.78265 36.6668 6.66671 36.6668H33.3334C34.2174 36.6668 35.0653 36.3156 35.6904 35.6904C36.3155 35.0653 36.6667 34.2175 36.6667 33.3334Z"
    stroke="currentColor" stroke-width="4" stroke-linecap="round" stroke-linejoin="round" />
</svg>
