<svg width="42" height="40" viewBox="0 0 42 40" fill="none" xmlns="http://www.w3.org/2000/svg">
  <g clip-path="url(#clip0)">
    <path
      d="M33.2862 19.865C38.025 19.865 41.8665 17.6566 41.8665 14.9325C41.8665 12.2084 38.025 10 33.2862 10C28.5474 10 24.7058 12.2084 24.7058 14.9325C24.7058 17.6566 28.5474 19.865 33.2862 19.865Z"
      fill="#263238" />
    <path fill-rule="evenodd" clip-rule="evenodd"
      d="M33.4147 22.7023C27.2778 22.7023 24.8344 20.0998 24.8344 18.5923V25.0498C24.8344 27.7748 28.6761 29.9798 33.4147 29.9798C38.1582 29.9798 42 27.7748 42 25.0498V18.7473C42 20.2573 39.5541 22.7023 33.4147 22.7023Z"
      fill="#263238" />
    <path fill-rule="evenodd" clip-rule="evenodd"
      d="M33.4147 32.6798C27.9251 32.6798 24.8344 30.1773 24.8344 28.6698V35.0673C24.8344 37.7923 28.6761 39.9998 33.4147 39.9998C38.1582 39.9998 42 37.7923 42 35.0673V28.5923C42 30.0998 38.9068 32.6798 33.4147 32.6798Z"
      fill="#263238" />
    <path
      d="M12.1973 9.865C17.5692 9.865 21.924 7.65664 21.924 4.9325C21.924 2.20836 17.5692 0 12.1973 0C6.82538 0 2.47058 2.20836 2.47058 4.9325C2.47058 7.65664 6.82538 9.865 12.1973 9.865Z"
      fill="#263238" />
    <path fill-rule="evenodd" clip-rule="evenodd"
      d="M12.5061 12.7023C5.55142 12.7023 2.77942 10.0998 2.77942 8.59229V15.0498C2.77942 17.7748 7.13507 19.9798 12.5061 19.9798C17.8821 19.9798 22.2353 17.7748 22.2353 15.0498V8.74729C22.2353 10.2573 19.4608 12.7023 12.5061 12.7023Z"
      fill="#263238" />
    <path fill-rule="evenodd" clip-rule="evenodd"
      d="M12.5061 22.6798C6.28271 22.6798 2.77942 20.1773 2.77942 18.6698V25.0673C2.77942 27.7923 7.13507 29.9998 12.5061 29.9998C17.8821 29.9998 22.2353 27.7923 22.2353 25.0673V18.5923C22.2353 20.0998 18.7271 22.6798 12.5061 22.6798Z"
      fill="#263238" />
    <path fill-rule="evenodd" clip-rule="evenodd"
      d="M12.5061 32.6798C6.28271 32.6798 2.77942 30.1773 2.77942 28.6698V35.0673C2.77942 37.7923 7.13507 39.9998 12.5061 39.9998C17.8821 39.9998 22.2353 37.7923 22.2353 35.0673V28.5923C22.2353 30.0998 18.7271 32.6798 12.5061 32.6798Z"
      fill="#263238" />
  </g>
  <defs>
    <clipPath id="clip0">
      <rect width="42" height="40" fill="white" />
    </clipPath>
  </defs>
</svg>
