<svg width="40" height="40" viewBox="0 0 40 40" fill="none" xmlns="http://www.w3.org/2000/svg">
  <path
    d="M20 2.5C10.3359 2.5 2.5 10.3359 2.5 20C2.5 29.6641 10.3359 37.5 20 37.5C29.6641 37.5 37.5 29.6641 37.5 20C37.5 10.3359 29.6641 2.5 20 2.5ZM21.25 28.4375C21.25 28.6094 21.1094 28.75 20.9375 28.75H19.0625C18.8906 28.75 18.75 28.6094 18.75 28.4375V17.8125C18.75 17.6406 18.8906 17.5 19.0625 17.5H20.9375C21.1094 17.5 21.25 17.6406 21.25 17.8125V28.4375ZM20 15C19.5093 14.99 19.0422 14.788 18.6987 14.4375C18.3553 14.087 18.1629 13.6158 18.1629 13.125C18.1629 12.6342 18.3553 12.163 18.6987 11.8125C19.0422 11.462 19.5093 11.26 20 11.25C20.4907 11.26 20.9578 11.462 21.3013 11.8125C21.6447 12.163 21.8371 12.6342 21.8371 13.125C21.8371 13.6158 21.6447 14.087 21.3013 14.4375C20.9578 14.788 20.4907 14.99 20 15Z"
    fill="#263238" />
</svg>
