<svg width="40" height="40" viewBox="0 0 40 40" fill="none" xmlns="http://www.w3.org/2000/svg">
  <g clip-path="url(#clip0)">
    <path
      d="M39.5833 32.9167H3.75V0.416667C3.75 0.1875 3.5625 0 3.33333 0H0.416667C0.1875 0 0 0.1875 0 0.416667V36.25C0 36.4792 0.1875 36.6667 0.416667 36.6667H39.5833C39.8125 36.6667 40 36.4792 40 36.25V33.3333C40 33.1042 39.8125 32.9167 39.5833 32.9167ZM9.26042 24.8802C9.42187 25.0417 9.68229 25.0417 9.84896 24.8802L17.0521 17.7135L23.6979 24.401C23.8594 24.5625 24.125 24.5625 24.2865 24.401L38.6302 10.0625C38.7917 9.90104 38.7917 9.63542 38.6302 9.47396L36.5677 7.41146C36.4894 7.33392 36.3836 7.29042 36.2734 7.29042C36.1632 7.29042 36.0575 7.33392 35.9792 7.41146L24 19.3854L17.3646 12.7083C17.2863 12.6308 17.1805 12.5873 17.0703 12.5873C16.9601 12.5873 16.8544 12.6308 16.776 12.7083L7.20312 22.224C7.12558 22.3023 7.08208 22.408 7.08208 22.5182C7.08208 22.6284 7.12558 22.7342 7.20312 22.8125L9.26042 24.8802Z"
      fill="#263238" />
  </g>
  <defs>
    <clipPath id="clip0">
      <rect width="40" height="40" fill="white" />
    </clipPath>
  </defs>
</svg>
