<svg width="40" height="40" viewBox="0 0 40 40" xmlns="http://www.w3.org/2000/svg">
  <path
    d="M33.7499 20.9498V19.9998V19.0373L36.1499 16.9373C36.5924 16.5473 36.8827 16.0136 36.9696 15.4303C37.0565 14.847 36.9344 14.2518 36.6249 13.7498L33.6749 8.74978C33.4557 8.3701 33.1406 8.05475 32.761 7.83535C32.3814 7.61595 31.9509 7.50023 31.5124 7.49978C31.2408 7.49769 30.9705 7.53991 30.7124 7.62478L27.6749 8.64978C27.1505 8.30129 26.6035 7.98809 26.0374 7.71228L25.3999 4.56228C25.2856 3.98678 24.9726 3.46983 24.5155 3.1019C24.0585 2.73398 23.4866 2.53853 22.8999 2.54978H17.0499C16.4633 2.53853 15.8914 2.73398 15.4344 3.1019C14.9773 3.46983 14.6643 3.98678 14.5499 4.56228L13.9124 7.71228C13.3424 7.98803 12.7912 8.30121 12.2624 8.64978L9.28745 7.57478C9.02657 7.50681 8.75642 7.48148 8.48745 7.49978C8.04904 7.50023 7.61846 7.61595 7.2389 7.83535C6.85934 8.05475 6.54415 8.3701 6.32495 8.74978L3.37495 13.7498C3.08318 14.251 2.97476 14.8381 3.06826 15.4105C3.16176 15.9829 3.45135 16.5049 3.88745 16.8873L6.24995 19.0498V20.9623L3.88745 23.0623C3.43904 23.4473 3.14152 23.9787 3.0477 24.5622C2.95388 25.1457 3.06982 25.7436 3.37495 26.2498L6.32495 31.2498C6.54415 31.6294 6.85934 31.9448 7.2389 32.1642C7.61846 32.3836 8.04904 32.4993 8.48745 32.4998C8.75914 32.5019 9.02935 32.4596 9.28745 32.3748L12.3249 31.3498C12.8494 31.6983 13.3964 32.0115 13.9624 32.2873L14.5999 35.4373C14.7143 36.0128 15.0273 36.5297 15.4844 36.8976C15.9414 37.2656 16.5133 37.461 17.0999 37.4498H22.9999C23.5866 37.461 24.1585 37.2656 24.6155 36.8976C25.0726 36.5297 25.3856 36.0128 25.4999 35.4373L26.1374 32.2873C26.7075 32.0115 27.2587 31.6983 27.7874 31.3498L30.8124 32.3748C31.0705 32.4596 31.3408 32.5019 31.6124 32.4998C32.0509 32.4993 32.4814 32.3836 32.861 32.1642C33.2406 31.9448 33.5557 31.6294 33.7749 31.2498L36.6249 26.2498C36.9167 25.7485 37.0251 25.1615 36.9316 24.5891C36.8381 24.0167 36.5485 23.4946 36.1124 23.1123L33.7499 20.9498ZM31.5124 29.9998L27.2249 28.5498C26.2213 29.3999 25.0742 30.0645 23.8374 30.5123L22.9499 34.9998H17.0499L16.1624 30.5623C14.9355 30.1017 13.7946 29.4383 12.7874 28.5998L8.48745 29.9998L5.53745 24.9998L8.93745 21.9998C8.70632 20.7058 8.70632 19.3812 8.93745 18.0873L5.53745 14.9998L8.48745 9.99978L12.7749 11.4498C13.7786 10.5996 14.9257 9.93509 16.1624 9.48728L17.0499 4.99978H22.9499L23.8374 9.43728C25.0644 9.8978 26.2053 10.5612 27.2124 11.3998L31.5124 9.99978L34.4624 14.9998L31.0624 17.9998C31.2936 19.2937 31.2936 20.6184 31.0624 21.9123L34.4624 24.9998L31.5124 29.9998Z"
  />
  <path
    d="M20 27.5C18.5166 27.5 17.0666 27.0601 15.8332 26.236C14.5999 25.4119 13.6386 24.2406 13.0709 22.8701C12.5032 21.4997 12.3547 19.9917 12.6441 18.5368C12.9335 17.082 13.6478 15.7456 14.6967 14.6967C15.7456 13.6478 17.082 12.9335 18.5368 12.6441C19.9917 12.3547 21.4997 12.5032 22.8701 13.0709C24.2406 13.6386 25.4119 14.5999 26.236 15.8332C27.0601 17.0666 27.5 18.5166 27.5 20C27.51 20.9877 27.3229 21.9675 26.9495 22.882C26.5762 23.7964 26.0241 24.6272 25.3257 25.3257C24.6272 26.0241 23.7964 26.5762 22.882 26.9495C21.9675 27.3229 20.9877 27.51 20 27.5ZM20 15C19.3392 14.9846 18.6821 15.1034 18.0685 15.3492C17.4549 15.5951 16.8976 15.9628 16.4302 16.4302C15.9628 16.8976 15.5951 17.4549 15.3492 18.0685C15.1034 18.6821 14.9846 19.3392 15 20C14.9846 20.6608 15.1034 21.3179 15.3492 21.9315C15.5951 22.5451 15.9628 23.1024 16.4302 23.5698C16.8976 24.0372 17.4549 24.4049 18.0685 24.6508C18.6821 24.8966 19.3392 25.0154 20 25C20.6608 25.0154 21.3179 24.8966 21.9315 24.6508C22.5451 24.4049 23.1024 24.0372 23.5698 23.5698C24.0372 23.1024 24.4049 22.5451 24.6508 21.9315C24.8966 21.3179 25.0154 20.6608 25 20C25.0154 19.3392 24.8966 18.6821 24.6508 18.0685C24.4049 17.4549 24.0372 16.8976 23.5698 16.4302C23.1024 15.9628 22.5451 15.5951 21.9315 15.3492C21.3179 15.1034 20.6608 14.9846 20 15Z"
  />
</svg>
